<svg width="60" height="60" viewBox="0 0 60 60" fill="none" xmlns="http://www.w3.org/2000/svg">
<g clip-path="url(#clip0_761_2110)">
<path d="M34.1667 35.2083V34.1667H31.0417V31.0417H34.1667V33.125H36.25V35.2083H35.2083V37.2917H33.125V39.375H31.0417V36.25H33.125V35.2083H34.1667ZM39.375 39.375H35.2083V37.2917H37.2917V35.2083H39.375V39.375ZM20.625 20.625H28.9583V28.9583H20.625V20.625ZM22.7083 22.7083V26.875H26.875V22.7083H22.7083ZM31.0417 20.625H39.375V28.9583H31.0417V20.625ZM33.125 22.7083V26.875H37.2917V22.7083H33.125ZM20.625 31.0417H28.9583V39.375H20.625V31.0417ZM22.7083 33.125V37.2917H26.875V33.125H22.7083ZM36.25 31.0417H39.375V33.125H36.25V31.0417ZM23.75 23.75H25.8333V25.8333H23.75V23.75ZM23.75 34.1667H25.8333V36.25H23.75V34.1667ZM34.1667 23.75H36.25V25.8333H34.1667V23.75Z" fill="white"/>
</g>
<rect x="0.25" y="0.25" width="59.5" height="59.5" rx="9.75" stroke="white" stroke-opacity="0.2" stroke-width="0.5"/>
<defs>
<clipPath id="clip0_761_2110">
<rect width="25" height="25" fill="white" transform="translate(17.5 17.5)"/>
</clipPath>
</defs>
</svg>
