<svg xmlns="http://www.w3.org/2000/svg" xml:space="preserve" width="888" height="888"><path fill="#fff" d="M0 0h888v888H0z"/><path d="M480 48h24.72v24.72H480z"/><path d="M504 48h24.72v24.72H504z"/><path d="M528 48h24.72v24.72H528zM600 48h24.72v24.72H600zM288 72h24.72v24.72H288zM336 72h24.72v24.72H336zM408 72h24.72v24.72H408zM480 72h24.72v24.72H480z"/><path d="M528 72h24.72v24.72H528z"/><path d="M552 72h24.72v24.72H552zM240 96h24.72v24.72H240z"/><path d="M264 96h24.72v24.72H264zM384 96h24.72v24.72H384zM432 96h24.72v24.72H432zM552 96h24.72v24.72H552z"/><path d="M576 96h24.72v24.72H576zM240 120h24.72v24.72H240zM288 120h24.72v24.72H288zM480 120h24.72v24.72H480z"/><path d="M576 120h24.72v24.72H576z"/><path d="M600 120h24.72v24.72H600z"/><path d="M624 120h24.72v24.72H624zM240 144h24.72v24.72H240zM288 144h24.72v24.72H288z"/><path d="M312 144h24.72v24.72H312zM360 144h24.72v24.72H360z"/><path d="M384 144h24.72v24.72H384z"/><path d="M408 144h24.72v24.72H408z"/><path d="M432 144h24.72v24.72H432zM528 144h24.72v24.72H528z"/><path d="M552 144h24.72v24.72H552zM600 144h24.72v24.72H600zM240 168h24.72v24.72H240z"/><path d="M264 168h24.72v24.72H264zM312 168h24.72v24.72H312zM384 168h24.72v24.72H384zM456 168h24.72v24.72H456z"/><path d="M480 168h24.72v24.72H480z"/><path d="M504 168h24.72v24.72H504zM552 168h24.72v24.72H552zM624 168h24.72v24.72H624zM240 192h24.72v24.72H240zM288 192h24.72v24.72H288zM336 192h24.72v24.72H336zM384 192h24.72v24.72H384zM432 192h24.72v24.72H432z"/><path d="M480 192h24.72v24.72H480zM528 192h24.72v24.72H528zM576 192h24.72v24.72H576zM624 192h24.72v24.72H624zM240 216h24.72v24.72H240zM312 216h24.72v24.72H312zM384 216h24.72v24.72H384zM432 216h24.72v24.72H432z"/><path d="M504 216h24.72v24.72H504z"/><path d="M528 216h24.72v24.72H528z"/><path d="M552 216h24.72v24.72H552z"/><path d="M576 216h24.72v24.72H576z"/><path d="M600 216h24.72v24.72H600zM48 240h24.72v24.72H48zM96 240h24.72v24.72H96z"/><path d="M120 240h24.72v24.72H120z"/><path d="M144 240h24.72v24.72H144z"/><path d="M168 240h24.72v24.72H168z"/><path d="M192 240h24.72v24.72H192zM288 240h24.72v24.72H288zM336 240h24.72v24.72H336z"/><path d="M360 240h24.72v24.72H360z"/><path d="M384 240h24.72v24.72H384zM456 240h24.72v24.72H456zM504 240h24.72v24.72H504zM576 240h24.72v24.72H576zM624 240h24.72v24.72H624zM672 240h24.72v24.72H672z"/><path d="M696 240h24.72v24.72H696z"/><path d="M720 240h24.72v24.72H720z"/><path d="M744 240h24.72v24.72H744z"/><path d="M768 240h24.72v24.72H768zM72 264h24.72v24.72H72zM120 264h24.72v24.72H120zM168 264h24.72v24.72H168zM216 264h24.72v24.72H216zM312 264h24.72v24.72H312z"/><path d="M336 264h24.72v24.72H336z"/><path d="M360 264h24.72v24.72H360zM432 264h24.72v24.72H432z"/><path d="M456 264h24.72v24.72H456z"/><path d="M480 264h24.72v24.72H480z"/><path d="M504 264h24.72v24.72H504z"/><path d="M528 264h24.72v24.72H528zM576 264h24.72v24.72H576z"/><path d="M600 264h24.72v24.72H600zM672 264h24.72v24.72H672z"/><path d="M696 264h24.72v24.72H696zM744 264h24.72v24.72H744z"/><path d="M768 264h24.72v24.72H768zM816 264h24.72v24.72H816zM48 288h24.72v24.72H48z"/><path d="M72 288h24.72v24.72H72z"/><path d="M96 288h24.72v24.72H96zM192 288h24.72v24.72H192z"/><path d="M216 288h24.72v24.72H216zM312 288h24.72v24.72H312z"/><path d="M336 288h24.72v24.72H336z"/><path d="M360 288h24.72v24.72H360z"/><path d="M384 288h24.72v24.72H384z"/><path d="M408 288h24.72v24.72H408z"/><path d="M432 288h24.72v24.72H432z"/><path d="M456 288h24.72v24.72H456zM576 288h24.72v24.72H576zM648 288h24.72v24.72H648z"/><path d="M672 288h24.72v24.72H672zM720 288h24.72v24.72H720zM768 288h24.72v24.72H768z"/><path d="M792 288h24.72v24.72H792zM72 312h24.72v24.72H72z"/><path d="M96 312h24.72v24.72H96zM144 312h24.72v24.72H144zM240 312h24.72v24.72H240z"/><path d="M264 312h24.72v24.72H264zM336 312h24.72v24.72H336z"/><path d="M360 312h24.72v24.72H360zM408 312h24.72v24.72H408zM456 312h24.72v24.72H456z"/><path d="M480 312h24.72v24.72H480zM528 312h24.72v24.72H528z"/><path d="M552 312h24.72v24.72H552zM648 312h24.72v24.72H648z"/><path d="M672 312h24.72v24.72H672zM720 312h24.72v24.72H720z"/><path d="M744 312h24.72v24.72H744z"/><path d="M768 312h24.72v24.72H768z"/><path d="M792 312h24.72v24.72H792z"/><path d="M816 312h24.72v24.72H816zM96 336h24.72v24.72H96zM144 336h24.72v24.72H144zM192 336h24.72v24.72H192zM240 336h24.72v24.72H240z"/><path d="M264 336h24.72v24.72H264z"/><path d="M288 336h24.72v24.72H288zM336 336h24.72v24.72H336zM384 336h24.72v24.72H384zM432 336h24.72v24.72H432zM504 336h24.72v24.72H504zM600 336h24.72v24.72H600zM648 336h24.72v24.72H648zM696 336h24.72v24.72H696z"/><path d="M720 336h24.72v24.72H720z"/><path d="M744 336h24.72v24.72H744zM792 336h24.72v24.72H792z"/><path d="M816 336h24.72v24.72H816zM48 360h24.72v24.72H48z"/><path d="M72 360h24.72v24.72H72zM168 360h24.72v24.72H168zM216 360h24.72v24.72H216z"/><path d="M240 360h24.72v24.72H240z"/><path d="M264 360h24.72v24.72H264z"/><path d="M288 360h24.72v24.72H288z"/><path d="M312 360h24.72v24.72H312zM408 360h24.72v24.72H408zM480 360h24.72v24.72H480zM552 360h24.72v24.72H552zM600 360h24.72v24.72H600zM672 360h24.72v24.72H672zM768 360h24.72v24.72H768z"/><path d="M792 360h24.72v24.72H792z"/><path d="M816 360h24.72v24.72H816zM48 384h24.72v24.72H48zM192 384h24.72v24.72H192z"/><path d="M216 384h24.72v24.72H216zM264 384h24.72v24.72H264z"/><path d="M288 384h24.72v24.72H288zM336 384h24.72v24.72H336z"/><path d="M360 384h24.72v24.72H360z"/><path d="M384 384h24.72v24.72H384z"/><path d="M408 384h24.72v24.72H408z"/><path d="M432 384h24.72v24.72H432zM624 384h24.72v24.72H624z"/><path d="M648 384h24.72v24.72H648z"/><path d="M672 384h24.72v24.72H672zM720 384h24.72v24.72H720zM792 384h24.72v24.72H792zM72 408h24.72v24.72H72z"/><path d="M96 408h24.72v24.72H96zM168 408h24.72v24.72H168zM240 408h24.72v24.72H240z"/><path d="M264 408h24.72v24.72H264z"/><path d="M288 408h24.72v24.72H288z"/><path d="M312 408h24.72v24.72H312zM384 408h24.72v24.72H384z"/><path d="M408 408h24.72v24.72H408zM552 408h24.72v24.72H552zM648 408h24.72v24.72H648z"/><path d="M672 408h24.72v24.72H672z"/><path d="M696 408h24.72v24.72H696zM744 408h24.72v24.72H744z"/><path d="M768 408h24.72v24.72H768zM48 432h24.72v24.72H48zM120 432h24.72v24.72H120zM192 432h24.72v24.72H192z"/><path d="M216 432h24.72v24.72H216zM264 432h24.72v24.72H264z"/><path d="M288 432h24.72v24.72H288zM336 432h24.72v24.72H336z"/><path d="M360 432h24.72v24.72H360z"/><path d="M384 432h24.72v24.72H384z"/><path d="M408 432h24.72v24.72H408zM456 432h24.72v24.72H456z"/><path d="M480 432h24.72v24.72H480z"/><path d="M504 432h24.72v24.72H504zM576 432h24.72v24.72H576zM624 432h24.72v24.72H624z"/><path d="M648 432h24.72v24.72H648zM696 432h24.72v24.72H696z"/><path d="M720 432h24.72v24.72H720zM816 432h24.72v24.72H816zM48 456h24.72v24.72H48z"/><path d="M72 456h24.72v24.72H72zM120 456h24.72v24.72H120z"/><path d="M144 456h24.72v24.72H144z"/><path d="M168 456h24.72v24.72H168zM216 456h24.72v24.72H216z"/><path d="M240 456h24.72v24.72H240z"/><path d="M264 456h24.72v24.72H264z"/><path d="M288 456h24.72v24.72H288z"/><path d="M312 456h24.72v24.72H312z"/><path d="M336 456h24.72v24.72H336z"/><path d="M360 456h24.72v24.72H360zM432 456h24.72v24.72H432zM480 456h24.72v24.72H480z"/><path d="M504 456h24.72v24.72H504z"/><path d="M528 456h24.72v24.72H528zM600 456h24.72v24.72H600z"/><path d="M624 456h24.72v24.72H624zM672 456h24.72v24.72H672z"/><path d="M696 456h24.72v24.72H696zM744 456h24.72v24.72H744z"/><path d="M768 456h24.72v24.72H768zM816 456h24.72v24.72H816zM48 480h24.72v24.72H48z"/><path d="M72 480h24.72v24.72H72z"/><path d="M96 480h24.72v24.72H96zM144 480h24.72v24.72H144z"/><path d="M168 480h24.72v24.72H168z"/><path d="M192 480h24.72v24.72H192zM264 480h24.72v24.72H264zM312 480h24.72v24.72H312z"/><path d="M336 480h24.72v24.72H336z"/><path d="M360 480h24.72v24.72H360z"/><path d="M384 480h24.72v24.72H384z"/><path d="M408 480h24.72v24.72H408zM480 480h24.72v24.72H480zM552 480h24.72v24.72H552z"/><path d="M576 480h24.72v24.72H576zM624 480h24.72v24.72H624z"/><path d="M648 480h24.72v24.72H648z"/><path d="M672 480h24.72v24.72H672z"/><path d="M696 480h24.72v24.72H696z"/><path d="M720 480h24.72v24.72H720zM768 480h24.72v24.72H768z"/><path d="M792 480h24.72v24.72H792zM96 504h24.72v24.72H96zM144 504h24.72v24.72H144zM264 504h24.72v24.72H264zM312 504h24.72v24.72H312z"/><path d="M336 504h24.72v24.72H336zM432 504h24.72v24.72H432zM552 504h24.72v24.72H552z"/><path d="M576 504h24.72v24.72H576z"/><path d="M600 504h24.72v24.72H600zM648 504h24.72v24.72H648zM696 504h24.72v24.72H696z"/><path d="M720 504h24.72v24.72H720z"/><path d="M744 504h24.72v24.72H744z"/><path d="M768 504h24.72v24.72H768zM48 528h24.72v24.72H48zM96 528h24.72v24.72H96zM192 528h24.72v24.72H192zM288 528h24.72v24.72H288zM336 528h24.72v24.72H336z"/><path d="M360 528h24.72v24.72H360zM408 528h24.72v24.72H408zM480 528h24.72v24.72H480zM576 528h24.72v24.72H576zM624 528h24.72v24.72H624zM696 528h24.72v24.72H696z"/><path d="M720 528h24.72v24.72H720z"/><path d="M744 528h24.72v24.72H744zM792 528h24.72v24.72H792z"/><path d="M816 528h24.72v24.72H816zM48 552h24.72v24.72H48z"/><path d="M72 552h24.72v24.72H72zM216 552h24.72v24.72H216z"/><path d="M240 552h24.72v24.72H240zM288 552h24.72v24.72H288z"/><path d="M312 552h24.72v24.72H312zM384 552h24.72v24.72H384z"/><path d="M408 552h24.72v24.72H408z"/><path d="M432 552h24.72v24.72H432z"/><path d="M456 552h24.72v24.72H456zM504 552h24.72v24.72H504z"/><path d="M528 552h24.72v24.72H528zM600 552h24.72v24.72H600zM672 552h24.72v24.72H672zM768 552h24.72v24.72H768zM816 552h24.72v24.72H816zM48 576h24.72v24.72H48zM120 576h24.72v24.72H120zM192 576h24.72v24.72H192z"/><path d="M216 576h24.72v24.72H216z"/><path d="M240 576h24.72v24.72H240z"/><path d="M264 576h24.72v24.72H264zM456 576h24.72v24.72H456zM696 576h24.72v24.72H696z"/><path d="M720 576h24.72v24.72H720z"/><path d="M744 576h24.72v24.72H744z"/><path d="M768 576h24.72v24.72H768z"/><path d="M792 576h24.72v24.72H792zM48 600h24.72v24.72H48zM96 600h24.72v24.72H96z"/><path d="M120 600h24.72v24.72H120zM168 600h24.72v24.72H168zM264 600h24.72v24.72H264z"/><path d="M288 600h24.72v24.72H288zM336 600h24.72v24.72H336z"/><path d="M360 600h24.72v24.72H360zM432 600h24.72v24.72H432zM480 600h24.72v24.72H480zM528 600h24.72v24.72H528z"/><path d="M552 600h24.72v24.72H552z"/><path d="M576 600h24.72v24.72H576zM624 600h24.72v24.72H624z"/><path d="M648 600h24.72v24.72H648zM720 600h24.72v24.72H720z"/><path d="M744 600h24.72v24.72H744z"/><path d="M768 600h24.72v24.72H768z"/><path d="M792 600h24.72v24.72H792z"/><path d="M816 600h24.72v24.72H816zM48 624h24.72v24.72H48zM96 624h24.72v24.72H96z"/><path d="M120 624h24.72v24.72H120zM168 624h24.72v24.72H168z"/><path d="M192 624h24.72v24.72H192zM288 624h24.72v24.72H288z"/><path d="M312 624h24.72v24.72H312z"/><path d="M336 624h24.72v24.72H336zM432 624h24.72v24.72H432z"/><path d="M456 624h24.72v24.72H456zM528 624h24.72v24.72H528zM576 624h24.72v24.72H576zM624 624h24.72v24.72H624z"/><path d="M648 624h24.72v24.72H648z"/><path d="M672 624h24.72v24.72H672z"/><path d="M696 624h24.72v24.72H696z"/><path d="M720 624h24.72v24.72H720zM240 648h24.72v24.72H240z"/><path d="M264 648h24.72v24.72H264zM336 648h24.72v24.72H336z"/><path d="M360 648h24.72v24.72H360zM432 648h24.72v24.72H432z"/><path d="M456 648h24.72v24.72H456z"/><path d="M480 648h24.72v24.72H480z"/><path d="M504 648h24.72v24.72H504z"/><path d="M528 648h24.72v24.72H528z"/><path d="M552 648h24.72v24.72H552zM600 648h24.72v24.72H600z"/><path d="M624 648h24.72v24.72H624zM720 648h24.72v24.72H720zM768 648h24.72v24.72H768zM816 648h24.72v24.72H816zM264 672h24.72v24.72H264z"/><path d="M288 672h24.72v24.72H288zM336 672h24.72v24.72H336zM408 672h24.72v24.72H408zM456 672h24.72v24.72H456zM600 672h24.72v24.72H600z"/><path d="M624 672h24.72v24.72H624zM672 672h24.72v24.72H672zM720 672h24.72v24.72H720zM768 672h24.72v24.72H768z"/><path d="M792 672h24.72v24.72H792zM240 696h24.72v24.72H240zM288 696h24.72v24.72H288z"/><path d="M312 696h24.72v24.72H312z"/><path d="M336 696h24.72v24.72H336z"/><path d="M360 696h24.72v24.72H360z"/><path d="M384 696h24.72v24.72H384z"/><path d="M408 696h24.72v24.72H408z"/><path d="M432 696h24.72v24.72H432z"/><path d="M456 696h24.72v24.72H456z"/><path d="M480 696h24.72v24.72H480zM528 696h24.72v24.72H528z"/><path d="M552 696h24.72v24.72H552zM600 696h24.72v24.72H600z"/><path d="M624 696h24.72v24.72H624zM720 696h24.72v24.72H720z"/><path d="M744 696h24.72v24.72H744z"/><path d="M768 696h24.72v24.72H768z"/><path d="M792 696h24.72v24.72H792z"/><path d="M816 696h24.72v24.72H816zM240 720h24.72v24.72H240zM312 720h24.72v24.72H312z"/><path d="M336 720h24.72v24.72H336zM384 720h24.72v24.72H384z"/><path d="M408 720h24.72v24.72H408z"/><path d="M432 720h24.72v24.72H432zM528 720h24.72v24.72H528zM576 720h24.72v24.72H576zM624 720h24.72v24.72H624z"/><path d="M648 720h24.72v24.72H648z"/><path d="M672 720h24.72v24.72H672z"/><path d="M696 720h24.72v24.72H696z"/><path d="M720 720h24.72v24.72H720z"/><path d="M744 720h24.72v24.72H744zM792 720h24.72v24.72H792zM240 744h24.72v24.72H240z"/><path d="M264 744h24.72v24.72H264zM312 744h24.72v24.72H312z"/><path d="M336 744h24.72v24.72H336z"/><path d="M360 744h24.72v24.72H360zM408 744h24.72v24.72H408zM480 744h24.72v24.72H480z"/><path d="M504 744h24.72v24.72H504z"/><path d="M528 744h24.72v24.72H528z"/><path d="M552 744h24.72v24.72H552zM624 744h24.72v24.72H624z"/><path d="M648 744h24.72v24.72H648zM720 744h24.72v24.72H720z"/><path d="M744 744h24.72v24.72H744zM792 744h24.72v24.72H792z"/><path d="M816 744h24.72v24.72H816zM240 768h24.72v24.72H240z"/><path d="M264 768h24.72v24.72H264zM312 768h24.72v24.72H312zM360 768h24.72v24.72H360zM408 768h24.72v24.72H408z"/><path d="M432 768h24.72v24.72H432zM480 768h24.72v24.72H480zM528 768h24.72v24.72H528z"/><path d="M552 768h24.72v24.72H552z"/><path d="M576 768h24.72v24.72H576z"/><path d="M600 768h24.72v24.72H600z"/><path d="M624 768h24.72v24.72H624zM672 768h24.72v24.72H672z"/><path d="M696 768h24.72v24.72H696zM768 768h24.72v24.72H768zM360 792h24.72v24.72H360zM408 792h24.72v24.72H408zM552 792h24.72v24.72H552z"/><path d="M576 792h24.72v24.72H576zM648 792h24.72v24.72H648z"/><path d="M672 792h24.72v24.72H672zM720 792h24.72v24.72H720zM768 792h24.72v24.72H768zM240 816h24.72v24.72H240z"/><path d="M264 816h24.72v24.72H264zM336 816h24.72v24.72H336z"/><path d="M360 816h24.72v24.72H360zM408 816h24.72v24.72H408zM456 816h24.72v24.72H456zM528 816h24.72v24.72H528zM576 816h24.72v24.72H576z"/><path d="M600 816h24.72v24.72H600z"/><path d="M624 816h24.72v24.72H624z"/><path d="M648 816h24.72v24.72H648z"/><path d="M672 816h24.72v24.72H672z"/><path d="M696 816h24.72v24.72H696zM792 816h24.72v24.72H792zM48 48v168h168V48H48zm144 144H72V72h120v120zM672 48v168h168V48H672zm144 144H696V72h120v120zM48 672v168h168V672H48zm144 144H72V696h120v120z"/><path d="M96 96h72v72H96zM720 96h72v72h-72zM96 720h72v72H96z"/></svg>