<svg width="194" height="71" fill="none" xmlns="http://www.w3.org/2000/svg"><g clip-path="url('#clip0')"><path d="M106.15 53.514h-2.705l-16.74-34.555h4.688l13.404 27.697 13.409-27.697h4.782L106.15 53.514ZM62.83 22.937H52.257v26.6h10.575c4.28 0 7.647-1.194 10.103-3.586 2.455-2.388 3.68-5.617 3.68-9.687 0-4.005-1.248-7.23-3.747-9.672-2.494-2.438-5.842-3.655-10.036-3.655Zm0-3.978c5.477 0 9.89 1.605 13.234 4.819 3.344 3.213 5.02 7.396 5.02 12.552 0 5.194-1.649 9.357-4.939 12.485-3.293 3.129-7.733 4.695-13.31 4.695H47.949V18.96h14.882ZM11.202 40.179h15.295l-7.679-15.304-7.616 15.304ZM0 53.514l17.025-34.55h3.586l17.212 34.55h-4.685l-4.72-9.296H9.222l-4.595 9.296H0Z" fill="#F4F4F4"/><path d="m130.6 11.606 11.962-8.431-9.927 15.691-2.035-7.26Z" fill="#E64B22"/><path d="m148.553 16.122-5.991-12.947-9.927 15.691 15.918-2.744Z" fill="#EB5A2E"/><path d="m158.73 0-10.177 16.122-5.991-12.947L158.73 0Z" fill="#EC6643"/><path d="m123.319 24.867 9.316-6-2.035-7.261-7.281 13.261Z" fill="#EB5A2E"/><path d="m172.914 3.167-4.756 12.9 8.93 2.985-4.174-15.885Z" fill="#E64B22"/><path d="m158.73 0 14.183 3.167-4.755 12.9L158.73 0Z" fill="#EC6643"/><path d="m172.914 3.167 11.969 8.617-7.795 7.268-4.174-15.885ZM121.713 39.625l10.922 7.69-9.316-22.448-1.606 14.758Z" fill="#EB5A2E"/><path d="m184.704 37.578 4.334 16.207L194 40.093l-9.296-2.515Z" fill="#EC6643"/><path d="m192.41 24.987-7.706 12.59L194 40.095l-1.59-15.107Z" fill="#E64B22"/><path d="m165.66 70.872-5.745-14.567 10.411 7.923-4.666 6.644Z" fill="#EB5A2E"/><path d="m175.79 57.22-5.465 7.008 8.568.783-3.103-7.791Z" fill="#EB5A2E"/><path d="m165.66 70.872 13.233-5.86-8.568-.784-4.665 6.644Z" fill="#E64B22"/><path d="m159.915 56.305 15.875.914-5.464 7.009-10.411-7.923Z" fill="#EC6643"/><path d="m178.893 65.01 10.145-11.225-13.248 3.434 3.103 7.792Z" fill="#E64B22"/><path d="M165.66 70.872 149.937 71l9.978-14.695 5.745 14.567Z" fill="#EE7459"/><path d="m136.408 64.926 8.699-3.629 4.83 9.703-13.529-6.074Z" fill="#E64B22"/><path d="m159.915 56.305-14.808 4.992 4.83 9.703 9.978-14.695Z" fill="#EC6643"/><path d="m121.713 39.624 10.922 7.691-6.357 6.292-4.565-13.983Z" fill="#E64B22"/><path d="m158.73 0 4.775 8.137-14.952 7.985L158.73 0Z" fill="#EE7459"/><path d="m148.553 16.122-11.545 2.745h-4.373l15.918-2.745Z" fill="#E64B22"/><path d="m137.008 35.423 11.545-19.3-11.545 2.744v16.556ZM126.278 53.606l10.13 11.32-3.773-11.32h-6.357Z" fill="#EB5A2E"/><path d="M132.635 47.315v6.292h-6.357l6.357-6.292Z" fill="#EE7459"/><path d="m132.635 18.866-9.316 6 9.316 22.45v-28.45ZM148.553 16.122l3.738 2.93-15.283 16.37 11.545-19.3Z" fill="#E64B22"/><path d="m154.555 19.053-6.002-2.93 3.738 2.93h2.264Z" fill="#EB5A2E"/><path d="m163.505 8.137-8.95 10.916-6.002-2.93 14.952-7.986Z" fill="#EC6643"/><path d="m152.291 19.053-15.283 16.37 15.283 18.184V19.053Z" fill="#EB5A2E"/><path d="M156.602 27.786v25.82l9.631-14.83-9.631-10.99Z" fill="#EE7459"/><path d="m168.158 16.067 8.93 28.806v-25.82l-8.93-2.986Z" fill="#EC6643"/><path d="m154.555 19.052 22.533 25.82-8.93-28.805-13.603 2.985Z" fill="#E64B22"/><path d="m184.883 11.784-3.453 7.268h-4.342l7.795-7.268Z" fill="#EC6643"/><path d="m192.41 24.987-10.98-5.935 3.453-7.268 7.527 13.203Z" fill="#EB5A2E"/><path d="m184.704 37.578-3.274-18.525 10.98 5.934-7.706 12.591Z" fill="#EC6643"/><path d="m189.038 53.785-7.608-.178 3.274-16.03 4.334 16.208Z" fill="#E64B22"/><path d="m175.79 57.22 5.64-3.614 7.608.179-13.248 3.434Z" fill="#EC6643"/><path d="m184.704 37.578-3.274-18.525v34.554l3.274-16.029Z" fill="#EB5A2E"/><path d="m166.233 38.775 12.995 14.831-3.438 3.613-9.557-18.444Z" fill="#EC6643"/><path d="m156.602 53.606 3.313 2.698 6.318-17.529-9.631 14.831Z" fill="#EB5A2E"/><path d="m175.79 57.22-15.875-.916 6.318-17.529 9.557 18.444Z" fill="#E64B22"/><path d="M181.43 53.606h-2.202l-3.438 3.613 5.64-3.613Z" fill="#EC6643"/><path d="m137.008 53.606-.6 11.32-3.773-11.32h4.373Z" fill="#E64B22"/><path d="m145.107 61.297-8.699 3.629.6-11.32 8.099 7.691Z" fill="#EC6643"/><path d="m152.291 53.606-7.184 7.691-8.099-7.69h15.283Z" fill="#EB5A2E"/><path d="m156.602 53.606-11.495 7.691 14.808-4.993-3.313-2.698Z" fill="#E64B22"/><path d="M152.291 53.606h4.311l-11.495 7.691 7.184-7.69ZM137.008 35.422v18.184h15.283l-15.283-18.184Z" fill="#EC6643"/><path d="m168.158 16.068-13.603 2.985 8.95-10.916 4.653 7.93Z" fill="#EB5A2E"/></g><defs><clipPath id="clip0"><path fill="#fff" d="M0 0h194v71H0z"/></clipPath></defs></svg>